<svg width="25" height="25" viewBox="0 0 25 25" fill="none" xmlns="http://www.w3.org/2000/svg">
<path d="M14.6307 5.5C14.6307 4.4 13.7307 3.5 12.6307 3.5C11.5307 3.5 10.6307 4.4 10.6307 5.5C10.6307 6.6 11.5307 7.5 12.6307 7.5C13.7307 7.5 14.6307 6.6 14.6307 5.5ZM14.6307 19.5C14.6307 18.4 13.7307 17.5 12.6307 17.5C11.5307 17.5 10.6307 18.4 10.6307 19.5C10.6307 20.6 11.5307 21.5 12.6307 21.5C13.7307 21.5 14.6307 20.6 14.6307 19.5ZM14.6307 12.5C14.6307 11.4 13.7307 10.5 12.6307 10.5C11.5307 10.5 10.6307 11.4 10.6307 12.5C10.6307 13.6 11.5307 14.5 12.6307 14.5C13.7307 14.5 14.6307 13.6 14.6307 12.5Z" fill="#292D32"/>
</svg>
