<svg width="33" height="32" viewBox="0 0 33 32" fill="none" xmlns="http://www.w3.org/2000/svg">
<path d="M12.8907 25.0932C12.6374 25.0932 12.384 24.9999 12.184 24.7999L4.09069 16.7066C3.70402 16.3199 3.70402 15.6799 4.09069 15.2932L12.184 7.19991C12.5707 6.81325 13.2107 6.81325 13.5974 7.19991C13.984 7.58658 13.984 8.22658 13.5974 8.61325L6.21069 15.9999L13.5974 23.3866C13.984 23.7732 13.984 24.4132 13.5974 24.7999C13.4107 24.9999 13.144 25.0932 12.8907 25.0932Z" fill="#25292A"/>
<path d="M27.464 17H5.02402C4.47735 17 4.02402 16.5467 4.02402 16C4.02402 15.4533 4.47735 15 5.02402 15H27.464C28.0107 15 28.464 15.4533 28.464 16C28.464 16.5467 28.0107 17 27.464 17Z" fill="#25292A"/>
</svg>
