<svg width="52" height="39" viewBox="0 0 52 39" fill="none" xmlns="http://www.w3.org/2000/svg">
<path d="M7.68363 22.4255C3.44008 20.4453 1.60585 15.4011 3.58676 11.159L5.21096 7.68089C7.19187 3.43883 12.2378 1.60525 16.4813 3.58547L23.7301 6.96802C32.2126 11.5326 36.9921 13.7274 45.5487 17.1495L47.0709 17.8598C49.7932 19.1302 50.9698 22.366 49.6991 25.0873L45.5032 34.0726C44.2324 36.7939 40.9954 37.9702 38.2732 36.6998L36.7509 35.9895C28.5307 31.5283 23.7752 29.264 14.9323 25.808L7.68363 22.4255Z" fill="#9295AB"/>
<path d="M6.51948 18.9389C4.63912 17.7252 3.94355 15.3102 4.89034 13.2827L7.67668 7.31585C8.62347 5.28834 10.922 4.27057 13.0603 4.93204L16.628 6.03571C17.369 6.26495 18.0751 6.59475 18.7264 7.01588L22.1592 9.23541C29.4078 13.1474 33.1046 14.8725 40.4068 18.28L40.9332 18.5256C43.6555 19.796 44.8322 23.0318 43.5614 25.7532L42.0726 28.9415C40.8018 31.6628 37.5648 32.8391 34.8425 31.5687L34.3161 31.3231C26.7239 27.7803 23.1721 26.1228 15.6625 23.148L11.756 21.9428C11.0148 21.7141 10.3085 21.3848 9.65687 20.9642L6.51948 18.9389Z" fill="white"/>
<path d="M12.5094 22.526C12.3667 22.4788 12.2763 22.3363 12.2925 22.187C13.0048 15.6342 14.5494 12.286 19.2582 7.27446C19.362 7.16394 19.5311 7.14045 19.6601 7.2202L26.118 11.2125C26.2817 11.3136 26.3184 11.5367 26.1985 11.6872C22.6277 16.1698 21.271 19.1288 20.1368 24.6693C20.0982 24.8576 19.9037 24.9725 19.7211 24.9121L12.5094 22.526Z" fill="#090E35"/>
<path d="M5.80502 6.61415L6.03742 6.81632C6.15417 6.91788 6.18112 7.0888 6.10253 7.22209C5.03649 9.03001 4.50092 10.1847 3.80752 12.137C3.75575 12.2828 3.60742 12.3718 3.45461 12.3476L3.15022 12.2993C3.26663 11.9147 3.41184 11.5338 3.58682 11.1591L5.21101 7.68092C5.38599 7.30622 5.58488 6.95031 5.80502 6.61415Z" fill="#090E35"/>
<path d="M42.33 35.1912C42.4633 35.2808 42.6436 35.2567 42.7491 35.1356C46.2897 31.0741 47.7496 27.9807 48.7404 22.2982C48.7683 22.138 48.671 21.9809 48.5147 21.9358L46.0806 21.2332C45.8917 21.1787 45.6988 21.3067 45.6723 21.5015C45.0007 26.4346 43.4557 29.7183 40.1707 33.2892C40.0371 33.4344 40.0624 33.6655 40.2261 33.7757L42.33 35.1912Z" fill="#090E35"/>
<path d="M28.768 29.2739L20.6544 25.6539L12.6822 23.0597C12.604 23.0342 12.5221 23.0868 12.5127 23.1684C12.5062 23.2241 12.5361 23.2776 12.5869 23.3013L27.7679 30.3854C27.873 30.4344 27.9964 30.4228 28.0905 30.355L28.8248 29.8254C29.0248 29.6812 28.9933 29.3744 28.768 29.2739Z" fill="#090E35"/>
<path d="M35.2726 15.3443L27.2864 11.4515L20.1776 7.00836C20.1078 6.96476 20.0955 6.86822 20.1521 6.80853C20.1906 6.76787 20.2509 6.75643 20.3016 6.78012L35.4827 13.8642C35.5877 13.9133 35.6581 14.0153 35.6665 14.1309L35.732 15.0337C35.7498 15.2796 35.4943 15.4524 35.2726 15.3443Z" fill="#090E35"/>
<path d="M29.6281 29.8602L28.9273 30.4157C28.7409 30.5634 28.7752 30.8556 28.9907 30.9562L37.8571 35.0936C38.144 35.2274 38.4303 34.9081 38.2659 34.6376L37.517 33.4056C37.4842 33.3517 37.4361 33.3086 37.3789 33.2819L29.9623 29.821C29.8524 29.7697 29.7231 29.7849 29.6281 29.8602Z" fill="#090E35"/>
<path d="M36.2744 15.627L36.2503 14.7333C36.2439 14.4956 36.49 14.3342 36.7056 14.4348L45.5719 18.5722C45.8588 18.7061 45.7978 19.1306 45.4848 19.1783L44.0591 19.3955C43.9967 19.405 43.9328 19.3959 43.8756 19.3692L36.4589 15.9082C36.3491 15.857 36.2777 15.7481 36.2744 15.627Z" fill="#090E35"/>
<path d="M44.866 35.1155C44.0846 36.1198 42.987 36.7983 41.787 37.0735C41.7894 37.0102 41.7982 36.9463 41.8137 36.8827L41.8281 36.824C41.8854 36.5891 42.0294 36.3845 42.2312 36.2511L43.9842 35.0924C44.2074 34.9449 44.4913 34.9239 44.7338 35.0371C44.7813 35.0592 44.8254 35.0856 44.866 35.1155Z" fill="#EC544D"/>
<path d="M49.6294 20.3429C50.1881 21.4548 50.3626 22.7492 50.0725 24.0053C50.0178 23.9934 49.9636 23.9752 49.9107 23.9505C49.6682 23.8374 49.502 23.6064 49.4718 23.3406L49.2346 21.2532C49.2072 21.0129 49.2717 20.7712 49.415 20.5764L49.4508 20.5277C49.5029 20.457 49.5631 20.3952 49.6294 20.3429Z" fill="#EC544D"/>
<path d="M48.6839 27.2613L46.383 32.1887L46.238 32.121C46.0778 32.0463 46.0086 31.8559 46.0834 31.6959L48.1136 27.3482C48.1884 27.1881 48.3788 27.1189 48.5389 27.1936L48.6839 27.2613Z" fill="#090E35"/>
<path d="M21.7576 18.9334L16.3164 10.7526C17.1279 9.64579 18.0969 8.51079 19.2584 7.27458C19.3622 7.16406 19.5313 7.14057 19.6603 7.22032L26.1182 11.2126C26.2819 11.3138 26.3186 11.5369 26.1987 11.6874C24.0747 14.3538 22.734 16.4811 21.7576 18.9334Z" fill="url(#paint0_linear_2439_24903)"/>
<path d="M43.685 34.0233L41.8574 31.2755C44.01 28.4136 45.1278 25.4991 45.672 21.5014C45.6985 21.3066 45.8915 21.1786 46.0804 21.2332L48.5144 21.9357C48.6707 21.9808 48.768 22.1379 48.7401 22.2981C47.8416 27.4515 46.5572 30.4755 43.685 34.0233Z" fill="url(#paint1_linear_2439_24903)"/>
<defs>
<linearGradient id="paint0_linear_2439_24903" x1="10.2884" y1="24.7881" x2="22.9132" y2="11.35" gradientUnits="userSpaceOnUse">
<stop stop-color="#E4E4E7"/>
<stop offset="1" stop-color="#E4E4E7" stop-opacity="0"/>
</linearGradient>
<linearGradient id="paint1_linear_2439_24903" x1="36.9217" y1="40.7174" x2="49.3411" y2="35.4507" gradientUnits="userSpaceOnUse">
<stop stop-color="#E4E4E7"/>
<stop offset="1" stop-color="#E4E4E7" stop-opacity="0"/>
</linearGradient>
</defs>
</svg>
