<svg width="68" height="67" viewBox="0 0 68 67" fill="none" xmlns="http://www.w3.org/2000/svg">
<path d="M34.0001 0.166668C15.6334 0.166668 0.666748 15.1333 0.666748 33.5C0.666748 51.8667 15.6334 66.8333 34.0001 66.8333C52.3668 66.8333 67.3334 51.8667 67.3334 33.5C67.3334 15.1333 52.3668 0.166668 34.0001 0.166668ZM49.9334 25.8333L31.0334 44.7333C30.5667 45.2 29.9334 45.4667 29.2667 45.4667C28.6001 45.4667 27.9667 45.2 27.5001 44.7333L18.0667 35.3C17.1001 34.3333 17.1001 32.7333 18.0667 31.7667C19.0334 30.8 20.6334 30.8 21.6001 31.7667L29.2667 39.4333L46.4001 22.3C47.3668 21.3333 48.9668 21.3333 49.9334 22.3C50.9001 23.2667 50.9001 24.8333 49.9334 25.8333Z" fill="#6C38B2"/>
</svg>
