<svg width="25" height="24" viewBox="0 0 25 24" fill="none" xmlns="http://www.w3.org/2000/svg">
<path d="M16.6307 22.75H8.63069C4.98069 22.75 2.88069 20.65 2.88069 17V7C2.88069 3.35 4.98069 1.25 8.63069 1.25H16.6307C20.2807 1.25 22.3807 3.35 22.3807 7V17C22.3807 20.65 20.2807 22.75 16.6307 22.75ZM8.63069 2.75C5.77069 2.75 4.38069 4.14 4.38069 7V17C4.38069 19.86 5.77069 21.25 8.63069 21.25H16.6307C19.4907 21.25 20.8807 19.86 20.8807 17V7C20.8807 4.14 19.4907 2.75 16.6307 2.75H8.63069Z" fill="#6C38B2"/>
<path d="M19.1307 9.25H17.1307C15.6107 9.25 14.3807 8.02 14.3807 6.5V4.5C14.3807 4.09 14.7207 3.75 15.1307 3.75C15.5407 3.75 15.8807 4.09 15.8807 4.5V6.5C15.8807 7.19 16.4407 7.75 17.1307 7.75H19.1307C19.5407 7.75 19.8807 8.09 19.8807 8.5C19.8807 8.91 19.5407 9.25 19.1307 9.25Z" fill="#6C38B2"/>
<path d="M12.6307 13.75H8.63069C8.22069 13.75 7.88069 13.41 7.88069 13C7.88069 12.59 8.22069 12.25 8.63069 12.25H12.6307C13.0407 12.25 13.3807 12.59 13.3807 13C13.3807 13.41 13.0407 13.75 12.6307 13.75Z" fill="#6C38B2"/>
<path d="M16.6307 17.75H8.63069C8.22069 17.75 7.88069 17.41 7.88069 17C7.88069 16.59 8.22069 16.25 8.63069 16.25H16.6307C17.0407 16.25 17.3807 16.59 17.3807 17C17.3807 17.41 17.0407 17.75 16.6307 17.75Z" fill="#6C38B2"/>
</svg>
