<svg width="19" height="18" viewBox="0 0 19 18" fill="none" xmlns="http://www.w3.org/2000/svg">
<path d="M4.78567 14.6402C4.32817 14.6402 3.90067 14.4827 3.59317 14.1902C3.20317 13.8227 3.01567 13.2677 3.08317 12.6677L3.36067 10.2377C3.41317 9.78016 3.69067 9.17266 4.01317 8.84266L10.1707 2.32516C11.7082 0.697659 13.3132 0.652659 14.9407 2.19016C16.5682 3.72766 16.6132 5.33266 15.0757 6.96016L8.91817 13.4777C8.60317 13.8152 8.01817 14.1302 7.56067 14.2052L5.14567 14.6177C5.01817 14.6252 4.90567 14.6402 4.78567 14.6402ZM12.5782 2.18266C12.0007 2.18266 11.4982 2.54266 10.9882 3.08266L4.83067 9.60766C4.68067 9.76516 4.50817 10.1402 4.47817 10.3577L4.20067 12.7877C4.17067 13.0352 4.23067 13.2377 4.36567 13.3652C4.50067 13.4927 4.70317 13.5377 4.95067 13.5002L7.36567 13.0877C7.58317 13.0502 7.94317 12.8552 8.09317 12.6977L14.2507 6.18016C15.1807 5.19016 15.5182 4.27516 14.1607 3.00016C13.5607 2.42266 13.0432 2.18266 12.5782 2.18266Z" fill="#6C38B2"/>
<path d="M13.6357 8.21263C13.6207 8.21263 13.5982 8.21263 13.5832 8.21263C11.2432 7.98013 9.3607 6.20263 9.0007 3.87763C8.9557 3.57013 9.1657 3.28513 9.4732 3.23263C9.7807 3.18763 10.0657 3.39763 10.1182 3.70513C10.4032 5.52013 11.8732 6.91513 13.7032 7.09513C14.0107 7.12513 14.2357 7.40263 14.2057 7.71013C14.1682 7.99513 13.9207 8.21263 13.6357 8.21263Z" fill="#6C38B2"/>
<path d="M16.3807 17.0625H2.88068C2.57318 17.0625 2.31818 16.8075 2.31818 16.5C2.31818 16.1925 2.57318 15.9375 2.88068 15.9375H16.3807C16.6882 15.9375 16.9432 16.1925 16.9432 16.5C16.9432 16.8075 16.6882 17.0625 16.3807 17.0625Z" fill="#6C38B2"/>
</svg>
