<svg width="21" height="21" viewBox="0 0 21 21" fill="none" xmlns="http://www.w3.org/2000/svg">
<path d="M9.8833 2.16663H8.21663C4.04997 2.16663 2.3833 3.83329 2.3833 7.99996V13C2.3833 17.1666 4.04997 18.8333 8.21663 18.8333H13.2166C17.3833 18.8333 19.05 17.1666 19.05 13V11.3333" stroke="#6C38B2" stroke-width="1.5" stroke-linecap="round" stroke-linejoin="round"/>
<path d="M14.0834 3.01663L7.5167 9.5833C7.2667 9.8333 7.0167 10.325 6.9667 10.6833L6.60836 13.1916C6.47503 14.1 7.1167 14.7333 8.02503 14.6083L10.5334 14.25C10.8834 14.2 11.375 13.95 11.6334 13.7L18.2 7.1333C19.3334 5.99997 19.8667 4.6833 18.2 3.01663C16.5334 1.34997 15.2167 1.8833 14.0834 3.01663Z" stroke="#6C38B2" stroke-width="1.5" stroke-miterlimit="10" stroke-linecap="round" stroke-linejoin="round"/>
<path d="M13.1417 3.95837C13.7001 5.95004 15.2584 7.50837 17.2584 8.07504" stroke="#6C38B2" stroke-width="1.5" stroke-miterlimit="10" stroke-linecap="round" stroke-linejoin="round"/>
</svg>
