<svg width="45" height="45" viewBox="0 0 45 45" fill="none" xmlns="http://www.w3.org/2000/svg">
<path d="M17.2095 20.1106C14.4628 20.1106 12.2401 17.8879 12.2401 15.1412C12.2401 12.3944 14.4628 10.1718 17.2095 10.1718C19.9562 10.1718 22.1789 12.3944 22.1789 15.1412C22.1789 17.8879 19.9562 20.1106 17.2095 20.1106ZM17.2095 12.8823C15.9627 12.8823 14.9507 13.8943 14.9507 15.1412C14.9507 16.388 15.9627 17.4 17.2095 17.4C18.4564 17.4 19.4683 16.388 19.4683 15.1412C19.4683 13.8943 18.4564 12.8823 17.2095 12.8823Z" fill="#626D6F"/>
<path d="M28.0519 41.7953H17.2095C7.39721 41.7953 3.20483 37.6029 3.20483 27.7906V16.9482C3.20483 7.13589 7.39721 2.94351 17.2095 2.94351H24.4378C25.1787 2.94351 25.7931 3.55791 25.7931 4.29881C25.7931 5.0397 25.1787 5.6541 24.4378 5.6541H17.2095C8.879 5.6541 5.91542 8.61767 5.91542 16.9482V27.7906C5.91542 36.1211 8.879 39.0847 17.2095 39.0847H28.0519C36.3824 39.0847 39.346 36.1211 39.346 27.7906V18.7553C39.346 18.0144 39.9604 17.4 40.7013 17.4C41.4422 17.4 42.0566 18.0144 42.0566 18.7553V27.7906C42.0566 37.6029 37.8642 41.7953 28.0519 41.7953Z" fill="#626D6F"/>
<path d="M39.346 11.0753H29.4072C28.6663 11.0753 28.0519 10.4609 28.0519 9.71998C28.0519 8.97908 28.6663 8.36469 29.4072 8.36469H39.346C40.0869 8.36469 40.7013 8.97908 40.7013 9.71998C40.7013 10.4609 40.0869 11.0753 39.346 11.0753Z" fill="#6C38B2"/>
<path d="M34.3767 16.0447C33.6358 16.0447 33.0214 15.4303 33.0214 14.6894V4.75057C33.0214 4.00968 33.6358 3.39528 34.3767 3.39528C35.1175 3.39528 35.7319 4.00968 35.7319 4.75057V14.6894C35.7319 15.4303 35.1175 16.0447 34.3767 16.0447Z" fill="#6C38B2"/>
<path d="M5.77084 36.2837C5.33714 36.2837 4.90345 36.0669 4.65046 35.6874C4.23484 35.073 4.39747 34.2237 5.01187 33.8081L13.9207 27.8267C15.8723 26.5256 18.5648 26.6702 20.3357 28.17L20.9321 28.6941C21.8356 29.4711 23.3716 29.4711 24.257 28.6941L31.7744 22.2429C33.7079 20.5985 36.7077 20.5985 38.6412 22.2429L41.5867 24.7728C42.1469 25.2607 42.2192 26.11 41.7313 26.6882C41.2434 27.2484 40.3941 27.3207 39.8158 26.8328L36.8703 24.3029C35.9668 23.5259 34.4308 23.5259 33.5453 24.3029L26.028 30.7541C24.1125 32.3985 21.0947 32.3985 19.1611 30.7541L18.5648 30.2301C17.7336 29.5253 16.3602 29.453 15.4386 30.0855L6.54787 36.0669C6.29488 36.2114 6.02382 36.2837 5.77084 36.2837Z" fill="#626D6F"/>
</svg>
