<svg width="14" height="15" viewBox="0 0 14 15" fill="none" xmlns="http://www.w3.org/2000/svg">
<path d="M7.00004 1.22921C10.4592 1.22921 13.2709 4.04087 13.2709 7.50004C13.2709 10.9592 10.4592 13.7709 7.00004 13.7709C3.54087 13.7709 0.729208 10.9592 0.729208 7.50004C0.729208 4.04087 3.54087 1.22921 7.00004 1.22921ZM7.00004 12.8959C9.97504 12.8959 12.3959 10.475 12.3959 7.50004C12.3959 4.52504 9.97504 2.10421 7.00004 2.10421C4.02504 2.10421 1.60421 4.52504 1.60421 7.50004C1.60421 10.475 4.02504 12.8959 7.00004 12.8959Z" fill="#25292A"/>
<path d="M7 6.47921C7.23917 6.47921 7.4375 6.67754 7.4375 6.91671V9.83337C7.4375 10.0725 7.23917 10.2709 7 10.2709C6.76083 10.2709 6.5625 10.0725 6.5625 9.83337V6.91671C6.5625 6.67754 6.76083 6.47921 7 6.47921Z" fill="#25292A"/>
<path d="M7.00004 4.58332C7.07587 4.58332 7.15171 4.60082 7.22171 4.62999C7.29171 4.65915 7.35587 4.69999 7.41421 4.75249C7.46671 4.81082 7.50754 4.86915 7.53671 4.94499C7.56587 5.01499 7.58337 5.09082 7.58337 5.16665C7.58337 5.24249 7.56587 5.31832 7.53671 5.38832C7.50754 5.45832 7.46671 5.52249 7.41421 5.58082C7.35587 5.63332 7.29171 5.67415 7.22171 5.70332C7.08171 5.76165 6.91837 5.76165 6.77837 5.70332C6.70837 5.67415 6.64421 5.63332 6.58587 5.58082C6.53337 5.52249 6.49254 5.45832 6.46337 5.38832C6.43421 5.31832 6.41671 5.24249 6.41671 5.16665C6.41671 5.09082 6.43421 5.01499 6.46337 4.94499C6.49254 4.86915 6.53337 4.81082 6.58587 4.75249C6.64421 4.69999 6.70837 4.65915 6.77837 4.62999C6.84837 4.60082 6.92421 4.58332 7.00004 4.58332Z" fill="#25292A"/>
</svg>
