<svg width="144" height="124" viewBox="0 0 144 124" fill="none" xmlns="http://www.w3.org/2000/svg">
<path d="M4.19241 65.9448C2.38832 65.9448 0.925797 64.179 0.925797 62.0008C0.925797 59.8227 2.38831 58.0569 4.1924 58.0569C5.99649 58.0569 7.45901 59.8227 7.45901 62.0008C7.45901 64.179 5.9965 65.9448 4.19241 65.9448ZM136.541 62.0008C136.541 64.179 138.003 65.9448 139.808 65.9448C141.612 65.9448 143.074 64.179 143.074 62.0008C143.074 59.8227 141.612 58.0569 139.808 58.0569C138.004 58.0569 136.541 59.8227 136.541 62.0008ZM37.076 16.4847C37.0736 16.4876 37.0688 16.4905 37.0665 16.4934C35.1928 17.9612 33.6957 20.1716 32.9186 22.9231L24.6285 52.2704C23.6258 55.8199 20.8638 58.2059 17.7576 58.2059H14.2222C13.3545 58.2059 12.5702 58.629 12.0005 59.3169C11.432 60.0033 11.0818 60.9476 11.0803 61.9926C11.0774 64.0833 12.5827 65.7926 14.3143 65.7926H37.6862L39.8293 58.2059L48.5279 27.4187C50.1775 18.4505 43.7226 12.1508 37.076 16.4847ZM83.9873 12.9648C83.9873 12.9677 73.4412 50.2911 73.4412 50.2911L71.2052 58.2059L69.4269 64.5032L69.0621 65.7926H63.4172C60.3588 65.7926 57.6364 68.144 56.6496 71.6381L52.6733 85.7092C51.8915 88.4751 50.3849 90.6912 48.4993 92.1619C48.4993 92.1648 48.4969 92.1648 48.4969 92.1648C42.4997 96.1156 35.4025 90.1587 37.0712 81.1848L41.4217 65.7926L43.5648 58.2059H49.2097C52.2681 58.2059 54.988 55.8574 55.9773 52.3604L68.3851 8.4404C69.167 5.66878 70.6808 3.44689 72.5735 1.98193C79.056 -1.99428 85.6536 3.99661 83.9873 12.9648ZM95.4702 96.5798L104.169 65.7926L106.312 58.2059L129.684 58.2059C131.415 58.2059 132.921 59.9153 132.918 62.0059C132.916 63.0509 132.566 63.9953 131.998 64.6816C131.428 65.3695 130.644 65.7926 129.776 65.7926H126.24C123.134 65.7926 120.372 68.1786 119.37 71.7281L111.079 101.075C110.302 103.827 108.805 106.037 106.932 107.505C106.929 107.508 106.924 107.511 106.922 107.514C100.275 111.848 93.8206 105.548 95.4702 96.5798ZM60.0108 111.034C60.0108 111.031 70.5568 73.7074 70.5568 73.7074L72.7929 65.7926L74.5712 59.4952L74.9359 58.2059H80.5808C83.6393 58.2059 86.3616 55.8545 87.3485 52.3604L91.3247 38.2893C92.1066 35.5234 93.6132 33.3073 95.4988 31.8366C95.4988 31.8337 95.5012 31.8337 95.5012 31.8337C101.498 27.8829 108.596 33.8398 106.927 42.8137L102.576 58.2059L100.433 65.7926H94.7884C91.73 65.7926 89.01 68.1411 88.0207 71.6381L75.6129 115.558C74.831 118.33 73.3173 120.552 71.4246 122.017C64.9421 125.993 58.3445 120.002 60.0108 111.034Z" fill="url(#paint0_linear_2830_1223)"/>
<path d="M38.263 81.185C36.5943 90.159 43.1761 95.1727 48.4968 92.165C47.2047 93.1666 45.7363 93.8171 44.1988 94.0531C42.6874 94.2833 41.1141 94.1135 39.5765 93.4803C38.0389 92.8472 36.704 91.8196 35.6265 90.5187C33.6956 88.199 32.5847 85.0129 32.5847 81.6887C32.5847 80.3532 32.7635 78.9976 33.1402 77.6651L36.4942 65.7929L38.6373 58.2061L47.3359 27.4189C48.9855 18.4507 42.3942 13.4572 37.0759 16.485C39.6385 14.4876 42.9067 13.8745 46.0176 15.1553C47.5552 15.7885 48.8877 16.816 49.9652 18.1169C51.8961 20.4337 53.007 23.6169 53.007 26.9441C53.007 28.2766 52.8282 29.6351 52.4515 30.9677L44.7566 58.2061L42.6135 65.7929L38.263 81.185ZM85.4318 3.63132C84.3543 2.33041 83.0193 1.3029 81.4818 0.669729C78.3852 -0.605251 75.1313 -0.000901716 72.5734 1.98217C77.8918 -1.01113 84.4616 3.99685 82.7953 12.965C82.7953 12.9679 82.7953 12.9679 82.7953 12.9679L72.2492 50.2913L70.0132 58.2061L68.2349 64.5035L67.8701 65.7929L56.0821 107.517C55.7055 108.849 55.5267 110.205 55.5267 111.54C55.5267 114.865 56.6375 118.048 58.5684 120.368C59.6459 121.669 60.9785 122.696 62.5161 123.329C65.6127 124.604 68.8642 124.003 71.4197 122.023C66.1085 125.007 59.553 120.011 61.1978 111.069C61.1978 111.063 61.1978 111.06 61.2002 111.057L71.751 73.7106L73.987 65.7929L75.7654 59.4955L76.1301 58.2061L87.9181 16.485C88.2948 15.1524 88.4736 13.7968 88.4736 12.4614C88.4736 9.13711 87.3627 5.95106 85.4318 3.63132ZM101.384 58.2061L99.2413 65.7929L91.5463 93.0313C91.1697 94.3639 90.9909 95.7224 90.9909 97.0549C90.9909 100.382 92.1018 103.565 94.0327 105.882C95.1101 107.183 96.4427 108.21 97.9803 108.844C101.091 110.124 104.359 109.511 106.922 107.514C101.604 110.542 95.0124 105.548 96.662 96.58L105.361 65.7929L107.504 58.2061L110.858 46.3339C111.234 45.0013 111.413 43.6457 111.413 42.3103C111.413 38.986 110.302 35.8 108.371 33.4803C107.294 32.1793 105.959 31.1518 104.421 30.5187C102.884 29.8855 101.31 29.7157 99.7991 29.9459C98.2615 30.1819 96.7931 30.8323 95.5011 31.8339C100.822 28.8263 107.404 33.84 105.735 42.814L101.384 58.2061Z" fill="url(#paint1_linear_2830_1223)"/>
<defs>
<linearGradient id="paint0_linear_2830_1223" x1="135.14" y1="10.1266" x2="20.7034" y2="74.6212" gradientUnits="userSpaceOnUse">
<stop stop-color="#01FFFF"/>
<stop offset="0.0707216" stop-color="#04EDF7"/>
<stop offset="0.507576" stop-color="#1783C4"/>
<stop offset="1" stop-color="#9018AB"/>
</linearGradient>
<linearGradient id="paint1_linear_2830_1223" x1="116.364" y1="14.1258" x2="26.5752" y2="80.5936" gradientUnits="userSpaceOnUse">
<stop offset="0.166667" stop-color="#03F7FB"/>
<stop offset="0.273018" stop-color="#13E5FB"/>
<stop offset="0.485785" stop-color="#3EB7FC"/>
<stop offset="0.78213" stop-color="#836DFE"/>
<stop offset="1" stop-color="#B933FF"/>
</linearGradient>
</defs>
</svg>
