<svg width="80" height="81" viewBox="0 0 80 81" fill="none" xmlns="http://www.w3.org/2000/svg">
<path d="M56.25 2.25C46.75 2.25 39.0625 9.875 38.75 19.6875C38.5 28.75 47.1875 40.6875 52.375 46.9375C53.3125 48.0625 54.75 48.75 56.25 48.75C57.75 48.75 59.125 48.0625 60.125 46.9375C65.3125 40.625 74.0625 28.75 73.75 19.6875C73.4375 9.875 65.75 2.25 56.25 2.25ZM56.25 26C52.8125 26 50 23.1875 50 19.75C50 16.3125 52.8125 13.5 56.25 13.5C59.6875 13.5 62.5 16.3125 62.5 19.75C62.5 23.1875 59.6875 26 56.25 26Z" fill="#6C38B2"/>
<path d="M7.74999 61.875C7.99999 62.625 8.74999 63.125 9.49999 63.125C9.68749 63.125 9.93749 63.0625 10.125 63L26 57.25L33.6875 78.375C33.9375 79.125 34.6875 79.625 35.4375 79.625C35.625 79.625 35.875 79.5625 36.0625 79.5C37.0625 79.125 37.5625 78.0625 37.1875 77.125L28.875 54.125L22.25 35.9375C21.875 34.9375 20.8125 34.4375 19.875 34.8125C18.875 35.1875 18.375 36.25 18.75 37.1875L24.75 53.625L8.87499 59.375C7.87499 59.8125 7.37499 60.875 7.74999 61.875Z" fill="#6C38B2"/>
<path d="M35.125 36.5625L31 38.0625L29.3125 33.375C28.9375 32.375 27.875 31.875 26.9375 32.25C25.9375 32.625 25.4375 33.6875 25.8125 34.625L28.125 41.125C28.375 41.875 29.125 42.375 29.875 42.375C30.0625 42.375 30.3125 42.3125 30.5 42.25L36.375 40.125C37.375 39.75 37.875 38.6875 37.5 37.75C37.125 36.8125 36.0625 36.25 35.125 36.5625Z" fill="#6C38B2"/>
<path d="M30.6875 48.1251L40.75 75.6876C41 76.4376 41.75 76.9376 42.5 76.9376C42.6875 76.9376 42.9375 76.8751 43.125 76.8126C44.125 76.4376 44.625 75.3751 44.25 74.4376L40.1875 63.2501L60.125 56.0001L61.625 60.1251C61.875 60.8751 62.625 61.3751 63.375 61.3751C63.5625 61.3751 63.8125 61.3126 64 61.2501C65 60.8751 65.5 59.8126 65.125 58.8751L63.625 54.7501L67.75 53.2501C68.75 52.8751 69.25 51.8126 68.875 50.8751C68.5 49.8751 67.4375 49.3751 66.5 49.7501L60.625 51.8751L38.9375 59.8126L34.875 48.6251L41.875 46.0001C42.875 45.6251 43.3125 44.5626 43 43.5626C42.625 42.5626 41.5625 42.1251 40.5625 42.4376L31.75 45.6876C31.6112 45.7426 31.0625 45.9776 30.7543 46.5932C30.3887 47.3207 30.6443 48.0132 30.6875 48.1251Z" fill="#6C38B2"/>
</svg>
