<svg width="25" height="24" viewBox="0 0 25 24" fill="none" xmlns="http://www.w3.org/2000/svg">
<path d="M12.2 6.44V9.77" stroke="#8D9A9B" stroke-width="1.5" stroke-miterlimit="10" stroke-linecap="round"/>
<path d="M12.22 2C8.53999 2 5.55999 4.98 5.55999 8.66V10.76C5.55999 11.44 5.27999 12.46 4.92999 13.04L3.65999 15.16C2.87999 16.47 3.41999 17.93 4.85999 18.41C9.63999 20 14.81 20 19.59 18.41C20.94 17.96 21.52 16.38 20.79 15.16L19.52 13.04C19.17 12.46 18.89 11.43 18.89 10.76V8.66C18.88 5 15.88 2 12.22 2Z" stroke="#8D9A9B" stroke-width="1.5" stroke-miterlimit="10" stroke-linecap="round"/>
<path d="M15.53 18.82C15.53 20.65 14.03 22.15 12.2 22.15C11.29 22.15 10.45 21.77 9.84999 21.17C9.24999 20.57 8.87 19.73 8.87 18.82" stroke="#8D9A9B" stroke-width="1.5" stroke-miterlimit="10"/>
</svg>
