<svg width="25" height="24" viewBox="0 0 25 24" fill="none" xmlns="http://www.w3.org/2000/svg">
<path d="M12.56 10.87C12.46 10.86 12.34 10.86 12.23 10.87C9.84999 10.79 7.95999 8.84 7.95999 6.44C7.95999 3.99 9.93999 2 12.4 2C14.85 2 16.84 3.99 16.84 6.44C16.83 8.84 14.94 10.79 12.56 10.87Z" stroke="#8D9A9B" stroke-width="1.5" stroke-linecap="round" stroke-linejoin="round"/>
<path d="M7.56 14.56C5.14 16.18 5.14 18.82 7.56 20.43C10.31 22.27 14.82 22.27 17.57 20.43C19.99 18.81 19.99 16.17 17.57 14.56C14.83 12.73 10.32 12.73 7.56 14.56Z" stroke="#8D9A9B" stroke-width="1.5" stroke-linecap="round" stroke-linejoin="round"/>
</svg>
