<svg width="19" height="18" viewBox="0 0 19 18" fill="none" xmlns="http://www.w3.org/2000/svg">
<path d="M1.63068 7.3125C1.32318 7.3125 1.06818 7.0575 1.06818 6.75V4.875C1.06818 2.7 2.83818 0.9375 5.00568 0.9375H6.88068C7.18818 0.9375 7.44318 1.1925 7.44318 1.5C7.44318 1.8075 7.18818 2.0625 6.88068 2.0625H5.00568C3.45318 2.0625 2.19318 3.3225 2.19318 4.875V6.75C2.19318 7.0575 1.93818 7.3125 1.63068 7.3125Z" fill="white"/>
<path d="M16.6307 7.3125C16.3232 7.3125 16.0682 7.0575 16.0682 6.75V4.875C16.0682 3.3225 14.8082 2.0625 13.2557 2.0625H11.3807C11.0732 2.0625 10.8182 1.8075 10.8182 1.5C10.8182 1.1925 11.0732 0.9375 11.3807 0.9375H13.2557C15.4232 0.9375 17.1932 2.7 17.1932 4.875V6.75C17.1932 7.0575 16.9382 7.3125 16.6307 7.3125Z" fill="white"/>
<path d="M13.2557 17.0625H12.1307C11.8232 17.0625 11.5682 16.8075 11.5682 16.5C11.5682 16.1925 11.8232 15.9375 12.1307 15.9375H13.2557C14.8082 15.9375 16.0682 14.6775 16.0682 13.125V12C16.0682 11.6925 16.3232 11.4375 16.6307 11.4375C16.9382 11.4375 17.1932 11.6925 17.1932 12V13.125C17.1932 15.3 15.4232 17.0625 13.2557 17.0625Z" fill="white"/>
<path d="M6.88068 17.0625H5.00568C2.83818 17.0625 1.06818 15.3 1.06818 13.125V11.25C1.06818 10.9425 1.32318 10.6875 1.63068 10.6875C1.93818 10.6875 2.19318 10.9425 2.19318 11.25V13.125C2.19318 14.6775 3.45318 15.9375 5.00568 15.9375H6.88068C7.18818 15.9375 7.44318 16.1925 7.44318 16.5C7.44318 16.8075 7.18818 17.0625 6.88068 17.0625Z" fill="white"/>
<path d="M10.6307 13.6875H7.63068C5.81568 13.6875 4.81818 12.69 4.81818 10.875V7.125C4.81818 5.31 5.81568 4.3125 7.63068 4.3125H10.6307C12.4457 4.3125 13.4432 5.31 13.4432 7.125V10.875C13.4432 12.69 12.4457 13.6875 10.6307 13.6875ZM7.63068 5.4375C6.44568 5.4375 5.94318 5.94 5.94318 7.125V10.875C5.94318 12.06 6.44568 12.5625 7.63068 12.5625H10.6307C11.8157 12.5625 12.3182 12.06 12.3182 10.875V7.125C12.3182 5.94 11.8157 5.4375 10.6307 5.4375H7.63068Z" fill="white"/>
<path d="M14.3807 9.5625H3.88068C3.57318 9.5625 3.31818 9.3075 3.31818 9C3.31818 8.6925 3.57318 8.4375 3.88068 8.4375H14.3807C14.6882 8.4375 14.9432 8.6925 14.9432 9C14.9432 9.3075 14.6882 9.5625 14.3807 9.5625Z" fill="white"/>
</svg>
