<svg width="25" height="24" viewBox="0 0 25 24" fill="none" xmlns="http://www.w3.org/2000/svg">
<path d="M11.6307 20.75C6.25068 20.75 1.88068 16.38 1.88068 11C1.88068 5.62 6.25068 1.25 11.6307 1.25C17.0107 1.25 21.3807 5.62 21.3807 11C21.3807 16.38 17.0107 20.75 11.6307 20.75ZM11.6307 2.75C7.08068 2.75 3.38068 6.45 3.38068 11C3.38068 15.55 7.08068 19.25 11.6307 19.25C16.1807 19.25 19.8807 15.55 19.8807 11C19.8807 6.45 16.1807 2.75 11.6307 2.75Z" fill="#9B9B9B"/>
<path d="M20.7907 22.79C20.7107 22.79 20.6307 22.78 20.5607 22.77C20.0907 22.71 19.2407 22.39 18.7607 20.96C18.5107 20.21 18.6007 19.46 19.0107 18.89C19.4207 18.32 20.1107 18 20.9007 18C21.9207 18 22.7207 18.39 23.0807 19.08C23.4407 19.77 23.3407 20.65 22.7707 21.5C22.0607 22.57 21.2907 22.79 20.7907 22.79ZM20.1907 20.49C20.3607 21.01 20.6007 21.27 20.7607 21.29C20.9207 21.31 21.2207 21.12 21.5307 20.67C21.8207 20.24 21.8407 19.93 21.7707 19.79C21.7007 19.65 21.4207 19.5 20.9007 19.5C20.5907 19.5 20.3607 19.6 20.2307 19.77C20.1107 19.94 20.0907 20.2 20.1907 20.49Z" fill="#9B9B9B"/>
</svg>
