<svg width="25" height="24" viewBox="0 0 25 24" fill="none" xmlns="http://www.w3.org/2000/svg">
<path d="M12.6307 22.7599C11.5407 22.7599 10.4607 22.4399 9.61069 21.8099L5.31069 18.5999C4.17069 17.7499 3.28069 15.9699 3.28069 14.5599V7.11994C3.28069 5.57994 4.41069 3.93994 5.86069 3.39994L10.8507 1.52994C11.8407 1.15994 13.4007 1.15994 14.3907 1.52994L19.3807 3.39994C20.8307 3.93994 21.9607 5.57994 21.9607 7.11994V14.5499C21.9607 15.9699 21.0707 17.7399 19.9307 18.5899L15.6307 21.7999C14.8007 22.4399 13.7207 22.7599 12.6307 22.7599ZM11.3807 2.93994L6.39069 4.80994C5.54069 5.12994 4.79069 6.20994 4.79069 7.12994V14.5599C4.79069 15.5099 5.46069 16.8399 6.21069 17.3999L10.5107 20.6099C11.6607 21.4699 13.6007 21.4699 14.7607 20.6099L19.0607 17.3999C19.8207 16.8299 20.4807 15.5099 20.4807 14.5599V7.11994C20.4807 6.20994 19.7307 5.12994 18.8807 4.79994L13.8907 2.92994C13.2107 2.68994 12.0507 2.68994 11.3807 2.93994Z" fill="#6C38B2"/>
<path d="M11.2907 14.2301C11.1007 14.2301 10.9107 14.1601 10.7607 14.0101L9.15069 12.4001C8.86069 12.1101 8.86069 11.6301 9.15069 11.3401C9.44069 11.0501 9.92069 11.0501 10.2107 11.3401L11.2907 12.4201L15.0607 8.65012C15.3507 8.36012 15.8307 8.36012 16.1207 8.65012C16.4107 8.94012 16.4107 9.42012 16.1207 9.71012L11.8207 14.0101C11.6707 14.1601 11.4807 14.2301 11.2907 14.2301Z" fill="#6C38B2"/>
</svg>
