<svg width="5" height="19" viewBox="0 0 5 19" fill="none" xmlns="http://www.w3.org/2000/svg">
<path d="M4.63068 2.5C4.63068 1.4 3.73068 0.5 2.63068 0.5C1.53068 0.5 0.630676 1.4 0.630676 2.5C0.630676 3.6 1.53068 4.5 2.63068 4.5C3.73068 4.5 4.63068 3.6 4.63068 2.5ZM4.63068 16.5C4.63068 15.4 3.73068 14.5 2.63068 14.5C1.53068 14.5 0.630676 15.4 0.630676 16.5C0.630676 17.6 1.53068 18.5 2.63068 18.5C3.73068 18.5 4.63068 17.6 4.63068 16.5ZM4.63068 9.5C4.63068 8.4 3.73068 7.5 2.63068 7.5C1.53068 7.5 0.630676 8.4 0.630676 9.5C0.630676 10.6 1.53068 11.5 2.63068 11.5C3.73068 11.5 4.63068 10.6 4.63068 9.5Z" fill="#292D32"/>
</svg>
