<svg width="282" height="196" viewBox="0 0 282 196" fill="none" xmlns="http://www.w3.org/2000/svg">
<path d="M214.32 80.84L214.195 111.978C214.133 130.323 198.221 151.539 168.456 168.824C143.683 183.238 114.168 192.037 86.7744 194.72C60.5664 197.216 36.2304 194.034 19.7568 184.486C6.7776 176.936 0.5376 166.64 0.6 155.158L0.724801 124.146C0.724801 135.627 6.9648 145.923 19.8816 153.411C36.2928 162.896 60.5664 166.078 86.7744 163.582C114.23 161.024 143.808 152.163 168.518 137.749C198.283 120.402 214.258 99.1856 214.32 80.84Z" fill="#6C38B2"/>
<path d="M195.101 51.512C228.797 70.9808 216.941 109.544 168.581 137.686C120.221 165.829 53.5776 172.818 19.8816 153.349C-13.8768 133.88 -1.9584 95.2544 46.4016 67.1744C94.7616 39.032 161.405 31.9808 195.101 51.512Z" fill="#B181F2"/>
<path d="M161.592 133.63C150.547 139.995 138.442 145.174 126.024 148.981C103.685 155.907 80.3472 158.59 60.5664 156.531C48.5232 155.283 37.7904 152.288 29.3664 147.421C20.9424 142.554 15.7632 136.314 13.5792 129.387C10.0848 117.968 14.7024 104.49 26.7456 91.5728C33.36 84.3968 42.3456 77.408 53.3904 71.0432C64.4976 64.616 76.6032 59.4992 89.0208 55.6304C125.026 44.4608 163.464 44.336 185.678 57.128C207.893 69.9824 207.643 92.1968 188.299 112.976C181.622 120.277 172.699 127.266 161.592 133.63Z" fill="#3B4951"/>
<path d="M161.592 133.63C150.547 139.995 138.442 145.174 126.024 148.981C121.906 142.491 128.77 131.946 143.746 123.272C158.722 114.598 177.005 110.605 188.299 113.038C181.622 120.277 172.699 127.266 161.592 133.63Z" fill="#D7DAFF"/>
<path d="M60.5664 156.594C48.5232 155.346 37.7904 152.35 29.3664 147.483C20.9424 142.616 15.7632 136.376 13.5792 129.45C23.0016 130.822 33.4848 134.379 42.7824 139.746C52.0176 145.112 58.1952 151.227 60.5664 156.594Z" fill="#D7DAFF"/>
<path d="M71.1744 81.464C56.1984 90.1376 37.9776 94.1312 26.6832 91.6976C33.2976 84.5216 42.2832 77.5328 53.328 71.168C64.4352 64.7408 76.5408 59.624 88.9584 55.7552C93.1392 62.2448 86.1504 72.7904 71.1744 81.464Z" fill="#D7DAFF"/>
<path d="M142.81 109.107C121.656 121.338 94.0128 125.144 81.0336 117.656C68.0544 110.168 74.6688 94.1936 95.8224 81.9632C116.976 69.7328 144.619 65.9264 157.598 73.4144C170.578 80.9648 163.963 96.9392 142.81 109.107Z" fill="#D7DAFF"/>
<path d="M148.426 94.1312C141.062 98.3744 129.144 98.3744 121.843 94.1312C114.48 89.888 114.48 83.024 121.843 78.7808C129.206 74.5376 141.125 74.5376 148.426 78.7808C155.726 83.024 155.726 89.888 148.426 94.1312Z" fill="#6C38B2"/>
<path d="M145.555 92.5088C139.752 95.8784 130.392 95.8784 124.589 92.5088C118.786 89.1392 118.786 83.7728 124.589 80.4032C130.392 77.0336 139.752 77.0336 145.555 80.4032C151.358 83.7104 151.358 89.1392 145.555 92.5088Z" fill="#D7DAFF"/>
<path d="M116.789 112.352C109.426 116.595 97.5072 116.595 90.2064 112.352C82.8432 108.109 82.8432 101.245 90.2064 97.0016C97.5696 92.7584 109.488 92.7584 116.789 97.0016C124.152 101.245 124.152 108.109 116.789 112.352Z" fill="#6C38B2"/>
<path d="M113.981 110.73C108.178 114.099 98.8176 114.099 93.0144 110.73C87.2112 107.36 87.2112 101.994 93.0144 98.624C98.8176 95.2544 108.178 95.2544 113.981 98.624C119.722 101.994 119.722 107.422 113.981 110.73Z" fill="#D7DAFF"/>
<path d="M214.32 80.84L214.195 111.978C214.133 130.323 198.221 151.539 168.456 168.824C143.683 183.238 114.168 192.037 86.7744 194.72V163.52C114.23 160.962 143.808 152.101 168.518 137.686C198.283 120.402 214.258 99.1856 214.32 80.84Z" fill="#8850D2"/>
<path d="M169.642 7.208V15.008L167.582 9.6416V1.8416L169.642 7.208Z" fill="#6C38B2"/>
<path d="M180.811 19.8128L180.749 27.5504L178.69 22.184V14.4464L180.811 19.8128Z" fill="#6C38B2"/>
<path d="M249.451 51.7616V59.5616C249.451 50.9504 243.648 42.6512 232.79 36.4112C219.062 28.4864 199.594 25.2416 180.749 27.6752V19.8752C199.656 17.4416 219.062 20.7488 232.79 28.6112C243.648 34.7888 249.514 43.1504 249.451 51.7616Z" fill="#6C38B2"/>
<path d="M188.299 31.0448V38.8448L186.178 33.416V25.6784L188.299 31.0448Z" fill="#6C38B2"/>
<path d="M229.483 50.2016V58.0016C229.483 52.8224 225.989 47.8928 219.499 44.1488C211.325 39.4064 199.656 37.472 188.299 38.9072V31.1072C199.594 29.672 211.325 31.6064 219.499 36.3488C225.989 40.0304 229.483 45.0224 229.483 50.2016Z" fill="#6C38B2"/>
<path d="M271.853 54.6944V62.4944C271.915 49.7024 263.179 37.3472 247.142 28.0496C226.738 16.256 197.784 11.3888 169.704 15.008V7.208C197.784 3.5888 226.8 8.456 247.142 20.2496C263.179 29.5472 271.915 41.9024 271.853 54.6944Z" fill="#6C38B2"/>
<path d="M226.238 32.4176C236.784 38.5328 241.214 47.2064 238.032 55.6304L228.672 54.4448C231.168 47.8928 227.736 41.1536 219.499 36.3488C211.325 31.6064 199.656 29.672 188.299 31.1072L186.178 25.6784C200.717 23.8064 215.693 26.3024 226.238 32.4176Z" fill="#9018AB" fill-opacity="0.2"/>
<path d="M239.03 50.2016V58.0016C239.03 59.8112 238.718 61.5584 238.032 63.368V55.568C238.718 53.8208 239.03 52.0112 239.03 50.2016Z" fill="#6C38B2"/>
<path d="M238.032 55.568V63.368L228.672 62.1824V54.3824L238.032 55.568Z" fill="#6C38B2"/>
<path d="M257.438 59.8736V67.6736L248.141 66.488V58.688L257.438 59.8736Z" fill="#6C38B2"/>
<path d="M258.998 51.6992V59.4992C258.998 62.2448 258.499 64.928 257.438 67.6736V59.8736C258.499 57.1904 258.998 54.4448 258.998 51.6992Z" fill="#6C38B2"/>
<path d="M239.53 24.68C255.566 33.9776 262.306 47.0816 257.438 59.936L248.141 58.7504C252.259 47.8304 246.518 36.536 232.79 28.6112C219.062 20.6864 199.594 17.4416 180.749 19.8752L178.627 14.5088C200.779 11.576 223.555 15.3824 239.53 24.68Z" fill="#9018AB" fill-opacity="0.2"/>
<path d="M253.819 16.3808C276.533 29.4848 286.018 48.1424 279.216 66.3008L269.856 65.1152C276.034 48.8288 267.485 32.0432 247.08 20.2496C226.675 8.456 197.722 3.5888 169.642 7.208L167.582 1.7792C198.907 -2.2144 231.168 3.2144 253.819 16.3808Z" fill="#9018AB" fill-opacity="0.2"/>
<path d="M281.4 54.6944V62.4944C281.4 66.3632 280.651 70.232 279.216 74.0384V66.2384C280.651 62.432 281.4 58.5632 281.4 54.6944Z" fill="#6C38B2"/>
<path d="M279.216 66.3008V74.0384L269.856 72.9152V65.1152L279.216 66.3008Z" fill="#6C38B2"/>
</svg>
