<svg width="19" height="21" viewBox="0 0 19 21" fill="none" xmlns="http://www.w3.org/2000/svg">
<path d="M16.7147 5.48332C14.1778 5.20832 11.6258 5.06665 9.08132 5.06665C7.57293 5.06665 6.06455 5.14998 4.55617 5.31665L3.00208 5.48332" stroke="#F14D4D" stroke-width="1.5" stroke-linecap="round" stroke-linejoin="round"/>
<path d="M7.19202 4.64163L7.35961 3.54996C7.4815 2.75829 7.57292 2.16663 8.86038 2.16663H10.8563C12.1438 2.16663 12.2428 2.79163 12.3571 3.55829L12.5247 4.64163" stroke="#F14D4D" stroke-width="1.5" stroke-linecap="round" stroke-linejoin="round"/>
<path d="M15.0768 8.1167L14.5816 16.5084C14.4978 17.8167 14.4293 18.8334 12.3038 18.8334H7.413C5.28755 18.8334 5.21899 17.8167 5.13519 16.5084L4.64001 8.1167" stroke="#F14D4D" stroke-width="1.5" stroke-linecap="round" stroke-linejoin="round"/>
<path d="M8.58618 14.25H11.123" stroke="#F14D4D" stroke-width="1.5" stroke-linecap="round" stroke-linejoin="round"/>
<path d="M7.95386 10.9166H11.7629" stroke="#F14D4D" stroke-width="1.5" stroke-linecap="round" stroke-linejoin="round"/>
</svg>
