<svg width="8" height="12" viewBox="0 0 8 12" fill="none" xmlns="http://www.w3.org/2000/svg">
<path d="M5.12888 6.00065L0.901384 1.54013C0.727961 1.37041 0.630676 1.14121 0.630676 0.902359C0.630676 0.663508 0.727961 0.43431 0.901384 0.264583C0.986544 0.180786 1.08805 0.114238 1.2 0.0688152C1.31195 0.023392 1.43211 0 1.55348 0C1.67484 0 1.795 0.023392 1.90695 0.0688152C2.0189 0.114238 2.12041 0.180786 2.20557 0.264583L7.3604 5.36157C7.53358 5.53169 7.63068 5.76104 7.63068 6C7.63068 6.23896 7.53358 6.46832 7.3604 6.63843L2.20557 11.7354C2.12041 11.8192 2.0189 11.8858 1.90695 11.9312C1.795 11.9766 1.67484 12 1.55348 12C1.43211 12 1.31195 11.9766 1.2 11.9312C1.08805 11.8858 0.986544 11.8192 0.901384 11.7354C0.727961 11.5657 0.630676 11.3365 0.630676 11.0976C0.630676 10.8588 0.727961 10.6296 0.901384 10.4599L5.12888 6.00065Z" fill="#25292A"/>
</svg>
